<?xml version="1.0" encoding="UTF-8" standalone="no"?>
<svg
   xmlns:dc="http://purl.org/dc/elements/1.1/"
   xmlns:cc="http://creativecommons.org/ns#"
   xmlns:rdf="http://www.w3.org/1999/02/22-rdf-syntax-ns#"
   xmlns:svg="http://www.w3.org/2000/svg"
   xmlns="http://www.w3.org/2000/svg"
   xmlns:sodipodi="http://sodipodi.sourceforge.net/DTD/sodipodi-0.dtd"
   xmlns:inkscape="http://www.inkscape.org/namespaces/inkscape"
   width="640"
   height="480"
   id="svg3650"
   version="1.1"
   inkscape:version="0.91 r13725"
   sodipodi:docname="textures.svg">
  <metadata
     id="metadata3908">
    <rdf:RDF>
      <cc:Work
         rdf:about="">
        <dc:format>image/svg+xml</dc:format>
        <dc:type
           rdf:resource="http://purl.org/dc/dcmitype/StillImage" />
        <dc:title></dc:title>
      </cc:Work>
    </rdf:RDF>
  </metadata>
  <defs
     id="defs3906" />
  <sodipodi:namedview
     pagecolor="#ffffff"
     bordercolor="#666666"
     borderopacity="1"
     objecttolerance="10"
     gridtolerance="10"
     guidetolerance="10"
     inkscape:pageopacity="0"
     inkscape:pageshadow="2"
     inkscape:window-width="1366"
     inkscape:window-height="716"
     id="namedview3904"
     showgrid="false"
     inkscape:zoom="1.6116142"
     inkscape:cx="175.70082"
     inkscape:cy="366.50343"
     inkscape:window-x="0"
     inkscape:window-y="0"
     inkscape:window-maximized="1"
     inkscape:current-layer="svg3650"
     inkscape:snap-text-baseline="false"
     showguides="false" />
  <g
     id="g4621">
    <path
       style="fill:#ff50a2;fill-opacity:1;stroke:none;stroke-width:2.7019999;stroke-linecap:round;stroke-linejoin:round;stroke-miterlimit:13.65400028"
       id="path4480"
       d="m 142.25482,67.292594 34.673,0 c 3.1187,0 5.6294,2.2456 5.6294,5.0351 l 0,35.861996 c 0,2.7894 -2.5107,5.0351 -5.6294,5.0351 l -34.673,0 c -3.1187,0 -5.6294,-2.2456 -5.6294,-5.0351 l 0,-35.861996 c 0,-2.7895 2.5107,-5.0351 5.6294,-5.0351 z"
       inkscape:connector-curvature="0" />
    <circle
       inkscape:export-ydpi="90"
       inkscape:export-xdpi="90"
       inkscape:export-filename="/home/felix/Projekts/ld35/core/assets/circle.png"
       r="19.999987"
       cy="90.25869"
       cx="159.59132"
       id="path4709"
       style="opacity:1;fill:#2f2930;fill-opacity:1" />
    <path
       style="fill:#ffffff"
       id="path4482"
       d="m 150.72162,83.252192 1.9147,0 2.9472,11.845 2.9378,-11.845 2.1306,0 2.9472,11.845 2.9378,-11.845 1.9241,0 -3.5197,14.013 -2.384,0 -2.9566,-12.164 -2.9847,12.164 -2.384,0 -3.5103,-14.013 z"
       inkscape:connector-curvature="0" />
  </g>
  <g
     id="g4615"
     style="opacity:0.99">
    <path
       style="fill:#ff50a2;fill-opacity:1;stroke:none;stroke-width:2.7019999;stroke-linecap:round;stroke-linejoin:round;stroke-miterlimit:13.65400028"
       id="path4486"
       d="m 80.34255,67.29259 34.673,0 c 3.1187,0 5.6294,2.2456 5.6294,5.0351 l 0,35.862 c 0,2.7894 -2.5107,5.0351 -5.6294,5.0351 l -34.673,0 c -3.1187,0 -5.6294,-2.2456 -5.6294,-5.0351 l 0,-35.862 c 0,-2.7894 2.5107,-5.0351 5.6294,-5.0351 z"
       inkscape:connector-curvature="0" />
    <rect
       inkscape:export-ydpi="90"
       inkscape:export-xdpi="90"
       inkscape:export-filename="/home/felix/Projekts/ld35/core/assets/square.png"
       y="70.25869"
       x="77.679047"
       height="40"
       width="40"
       id="rect4138"
       style="opacity:1;fill:#2f2930;fill-opacity:1" />
    <g
       transform="translate(-21.49585,-95.84572)"
       id="g4488"
       style="">
      <path
         id="path4490"
         d="m 119.1749,180.96571 -2.5717,6.9737 5.1529,0 -2.5811,-6.9737 z m -1.07,-1.8678 2.1494,0 5.3406,14.013 -1.9711,0 -1.2765,-3.5948 -6.3167,0 -1.2765,3.5948 -1.9992,0 5.35,-14.013 z"
         inkscape:connector-curvature="0"
         style="fill:#ffffff" />
    </g>
  </g>
  <g
     id="g4626">
    <path
       style="fill:#ff50a2;fill-opacity:1;stroke:none;stroke-width:2.7019999;stroke-linecap:round;stroke-linejoin:round;stroke-miterlimit:13.65400028"
       id="path4494"
       d="m 204.16709,67.29259 34.67301,0 c 3.1187,0 5.6294,2.2456 5.6294,5.0351 l 0,35.862 c 0,2.7894 -2.5107,5.0351 -5.6294,5.0351 l -34.67301,0 c -3.1187,0 -5.6294,-2.2456 -5.6294,-5.0351 l 0,-35.862 c 0,-2.7894 2.5107,-5.0351 5.6294,-5.0351 z"
       inkscape:connector-curvature="0" />
    <path
       inkscape:transform-center-y="-5.7735018"
       d="m 241.5036,107.5792 -40,0 20,-34.641015 z"
       inkscape:randomized="0"
       inkscape:rounded="0"
       inkscape:flatsided="true"
       sodipodi:arg2="1.5707963"
       sodipodi:arg1="0.52359878"
       sodipodi:r2="11.547004"
       sodipodi:r1="23.094011"
       sodipodi:cy="96.032196"
       sodipodi:cx="221.5036"
       sodipodi:sides="3"
       id="path4560-1"
       style="opacity:1;fill:#2f2930;fill-opacity:1;stroke:none;stroke-width:2.7019999;stroke-miterlimit:13.65400028;stroke-dasharray:none;stroke-opacity:1"
       sodipodi:type="star" />
    <path
       style="fill:#ffffff"
       inkscape:connector-curvature="0"
       d="m 225.59119,83.702685 0,1.849 c -0.7196,-0.34415 -1.3985,-0.60068 -2.0368,-0.76962 -0.63823,-0.16894 -1.2546,-0.25342 -1.84898,-0.25342 -1.0324,0 -1.8287,0.20023 -2.3887,0.60071 -0.56006,0.40045 -0.84004,0.96988 -0.84004,1.7082 0,0.61948 0.18617,1.0872 0.55844,1.4032 0.37233,0.31601 1.07778,0.57098 2.1165,0.76495 l 1.1451,0.2346 c 1.4141,0.26904 2.4576,0.74304 3.1302,1.422 0.67267,0.67892 1.009,1.5878 1.009,2.7266 0,1.3578 -0.45523,2.3872 -1.3656,3.088 -0.91046,0.70084 -2.2448,1.0512 -4.0031,1.0512 -0.66327,0 -1.3688,-0.0751 -2.1165,-0.22525 -0.74774,-0.15021 -1.5221,-0.37231 -2.323,-0.66641 l 0,-1.9523 c 0.76965,0.43176 1.52368,0.75717 2.262,0.97617 0.73837,0.21899 1.4642,0.32849 2.1775,0.32849 1.0825,0 1.9178,-0.21274 2.506,-0.63824 0.5882,-0.42548 0.88229,-1.0324 0.88231,-1.8209 -2e-5,-0.68829 -0.21121,-1.2264 -0.63356,-1.6144 -0.42239,-0.38794 -1.1154,-0.67889 -2.079,-0.87289 l -1.15451,-0.2253 c -1.41419,-0.28159 -2.43719,-0.72272 -3.06919,-1.3234 -0.63199,-0.60068 -0.94797,-1.436 -0.94797,-2.506 0,-1.239 0.43643,-2.2151 1.3093,-2.9284 0.87289,-0.71332 2.07579,-1.07 3.6089,-1.07 0.65701,3e-5 1.3266,0.0595 2.0086,0.17838 0.68204,0.1189 1.3797,0.29721 2.0931,0.53497 z"
       id="path4496" />
  </g>
  <text
     style="font-size:12px;font-family:'Bitstream Vera Sans'"
     x="242.24373"
     y="247.86856"
     font-size="12px"
     xml:space="preserve"
     id="text2419" />
  <g
     id="g4624"
     transform="translate(-134.63153,-200.15566)"
     style="fill:#ff0000"
     inkscape:export-xdpi="300"
     inkscape:export-ydpi="300">
    <path
       inkscape:connector-curvature="0"
       d="m 199.99,391.89005 242.72,0 c 3.1188,0 5.6294,2.2457 5.6294,5.0351 l 0,35.862 c 0,2.7894 -2.5106,5.035 -5.6294,5.035 l -242.72,0 c -3.1187,0 -5.6294,-2.2456 -5.6294,-5.035 l 0,-35.862 c 0,-2.7894 2.5107,-5.0351 5.6294,-5.0351 z"
       id="rect2409"
       style="fill:#2f2930;stroke:none;stroke-width:2.7019999;stroke-linecap:round;stroke-linejoin:round;stroke-miterlimit:13.65400028;fill-opacity:1"
       inkscape:export-xdpi="300"
       inkscape:export-ydpi="300" />
  </g>
  <g
     id="g4660">
    <path
       inkscape:connector-curvature="0"
       d="m 142.25482,127.29259 34.673,0 c 3.1187,0 5.6294,2.2456 5.6294,5.0351 l 0,35.862 c 0,2.7894 -2.5107,5.0351 -5.6294,5.0351 l -34.673,0 c -3.1187,0 -5.6294,-2.2456 -5.6294,-5.0351 l 0,-35.862 c 0,-2.7895 2.5107,-5.0351 5.6294,-5.0351 z"
       id="rect2662"
       style="fill:#2f2930;fill-opacity:1;stroke:none;stroke-width:2.7019999;stroke-linecap:round;stroke-linejoin:round;stroke-miterlimit:13.65400028" />
    <circle
       style="opacity:1;fill:#ff0000;fill-opacity:1"
       id="circle4504"
       cx="159.59132"
       cy="150.2587"
       r="19.999987"
       inkscape:export-filename="/home/felix/Projekts/ld35/core/assets/circle.png"
       inkscape:export-xdpi="90"
       inkscape:export-ydpi="90" />
    <path
       inkscape:connector-curvature="0"
       d="m 150.72162,143.25219 1.9147,0 2.9472,11.845 2.9378,-11.845 2.1306,0 2.9472,11.845 2.9378,-11.845 1.9241,0 -3.5197,14.013 -2.384,0 -2.9566,-12.164 -2.9847,12.164 -2.384,0 -3.5103,-14.013 z"
       id="text2431"
       style="fill:#2f2930;fill-opacity:1" />
  </g>
  <g
     id="g4665">
    <path
       inkscape:connector-curvature="0"
       d="m 80.34255,127.29259 34.673,0 c 3.1187,0 5.6294,2.2456 5.6294,5.0351 l 0,35.862 c 0,2.7894 -2.5107,5.0351 -5.6294,5.0351 l -34.673,0 c -3.1187,0 -5.6294,-2.2456 -5.6294,-5.0351 l 0,-35.862 c 0,-2.7894 2.5107,-5.0351 5.6294,-5.0351 z"
       id="rect2684"
       style="fill:#2f2930;fill-opacity:1;stroke:none;stroke-width:2.7019999;stroke-linecap:round;stroke-linejoin:round;stroke-miterlimit:13.65400028" />
    <rect
       style="opacity:1;fill:#008000;fill-opacity:1"
       id="rect4510"
       width="40"
       height="40"
       x="77.679047"
       y="130.2587"
       inkscape:export-filename="/home/felix/Projekts/ld35/core/assets/square.png"
       inkscape:export-xdpi="90"
       inkscape:export-ydpi="90" />
    <g
       style="fill:#2f2930;fill-opacity:1"
       transform="translate(-21.49585,-35.84572)"
       id="g4720">
      <path
         style="fill:#2f2930;fill-opacity:1"
         inkscape:connector-curvature="0"
         d="m 119.1749,180.96571 -2.5717,6.9737 5.1529,0 -2.5811,-6.9737 z m -1.07,-1.8678 2.1494,0 5.3406,14.013 -1.9711,0 -1.2765,-3.5948 -6.3167,0 -1.2765,3.5948 -1.9992,0 5.35,-14.013 z"
         id="text2451" />
    </g>
  </g>
  <g
     id="g4655">
    <path
       inkscape:connector-curvature="0"
       d="m 204.16709,127.29259 34.67301,0 c 3.1187,0 5.6294,2.2456 5.6294,5.0351 l 0,35.862 c 0,2.7894 -2.5107,5.0351 -5.6294,5.0351 l -34.67301,0 c -3.1187,0 -5.6294,-2.2456 -5.6294,-5.0351 l 0,-35.862 c 0,-2.7894 2.5107,-5.0351 5.6294,-5.0351 z"
       id="rect2686"
       style="fill:#2f2930;fill-opacity:1;stroke:none;stroke-width:2.7019999;stroke-linecap:round;stroke-linejoin:round;stroke-miterlimit:13.65400028;opacity:1" />
    <path
       inkscape:transform-center-y="-5.7735018"
       d="m 241.5036,167.5792 -40,0 20,-34.64102 z"
       inkscape:randomized="0"
       inkscape:rounded="0"
       inkscape:flatsided="true"
       sodipodi:arg2="1.5707963"
       sodipodi:arg1="0.52359878"
       sodipodi:r2="11.547004"
       sodipodi:r1="23.094011"
       sodipodi:cy="156.0322"
       sodipodi:cx="221.5036"
       sodipodi:sides="3"
       id="path4560"
       style="opacity:1;fill:#ffff00;fill-opacity:0.98823529;stroke:none;stroke-width:2.7019999;stroke-miterlimit:13.65400028;stroke-dasharray:none;stroke-opacity:1"
       sodipodi:type="star" />
    <path
       id="text2455"
       d="m 225.59119,143.7027 0,1.849 c -0.7196,-0.34415 -1.3985,-0.60068 -2.0368,-0.76962 -0.63823,-0.16894 -1.2546,-0.25342 -1.84898,-0.25342 -1.0324,0 -1.8287,0.20023 -2.3887,0.60071 -0.56006,0.40045 -0.84004,0.96988 -0.84004,1.7082 0,0.61948 0.18617,1.0872 0.55844,1.4032 0.37233,0.31601 1.07778,0.57098 2.1165,0.76495 l 1.1451,0.2346 c 1.4141,0.26904 2.4576,0.74304 3.1302,1.422 0.67267,0.67892 1.009,1.5878 1.009,2.7266 0,1.3578 -0.45523,2.3872 -1.3656,3.088 -0.91046,0.70084 -2.2448,1.05119 -4.0031,1.05119 -0.66327,0 -1.3688,-0.0751 -2.1165,-0.22524 -0.74774,-0.15021 -1.5221,-0.37231 -2.323,-0.66642 l 0,-1.9523 c 0.76965,0.43176 1.52368,0.75717 2.262,0.97617 0.73837,0.21899 1.4642,0.32849 2.1775,0.32849 1.0825,0 1.9178,-0.21274 2.506,-0.63824 0.5882,-0.42548 0.88229,-1.0324 0.88231,-1.8209 -2e-5,-0.68829 -0.21121,-1.22641 -0.63356,-1.6144 -0.42239,-0.38793 -1.1154,-0.67889 -2.079,-0.87289 l -1.15451,-0.2253 c -1.41419,-0.28159 -2.43719,-0.72273 -3.06919,-1.3234 -0.63199,-0.60068 -0.94797,-1.436 -0.94797,-2.506 0,-1.239 0.43643,-2.2151 1.3093,-2.9284 0.87289,-0.71333 2.07579,-1.07 3.6089,-1.07 0.65701,3e-5 1.3266,0.0595 2.0086,0.17838 0.68204,0.1189 1.3797,0.29721 2.0931,0.53496 z"
       inkscape:connector-curvature="0"
       style="opacity:1;fill:#2f2930;fill-opacity:1" />
  </g>
  <g
     id="g4214"
     transform="translate(70.430533,-2.659569)">
    <g
       inkscape:export-ydpi="300"
       inkscape:export-xdpi="300"
       transform="translate(-59.670932,-146.10604)"
       id="g4744">
      <path
         style="fill:#ff50a2;fill-opacity:1;stroke:none;stroke-width:2.7019999;stroke-linecap:round;stroke-linejoin:round;stroke-miterlimit:13.65400028"
         id="rect2791"
         d="m 546.81636,276.05825 34.673,0 c 3.1188,0 5.6294,2.2457 5.6294,5.0351 l 0,35.862 c 0,2.7894 -2.5106,5.035 -5.6294,5.035 l -34.673,0 c -3.1188,0 -5.6294,-2.2456 -5.6294,-5.035 l 0,-35.862 c 0,-2.7894 2.5106,-5.0351 5.6294,-5.0351 z"
         inkscape:connector-curvature="0" />
      <path
         style="fill:#ffffff;fill-rule:evenodd;stroke-width:0.727"
         inkscape:connector-curvature="0"
         d="m 562.30636,296.42825 -6.7546,3.9684 6.7546,3.8839 0,-2.9551 9.9631,0 0,-1.942 -9.9631,0 0,-2.9552 z"
         id="path3069" />
    </g>
    <g
       inkscape:export-ydpi="300"
       inkscape:export-xdpi="300"
       transform="translate(-300.10969,-93.896087)"
       id="g4748">
      <path
         style="fill:#ff50a2;fill-opacity:1;stroke:none;stroke-width:2.7019999;stroke-linecap:round;stroke-linejoin:round;stroke-miterlimit:13.65400028"
         id="rect2787"
         d="m 597.05636,223.84825 34.673,0 c 3.1186,0 5.6294,2.2456 5.6294,5.0351 l 0,35.862 c 0,2.7894 -2.5107,5.0351 -5.6294,5.0351 l -34.673,0 c -3.1186,0 -5.6294,-2.2457 -5.6294,-5.0351 l 0,-35.862 c 0,-2.7895 2.5107,-5.0351 5.6294,-5.0351 z"
         inkscape:connector-curvature="0" />
      <path
         style="fill:#ffffff;fill-rule:evenodd;stroke-width:0.727"
         inkscape:connector-curvature="0"
         d="m 613.04636,238.16825 -3.9684,6.8391 2.9552,0 0,9.9631 1.9419,0 0,-9.9631 2.9552,0 -3.8839,-6.8391 z"
         id="path3071" />
    </g>
    <g
       inkscape:export-ydpi="300"
       inkscape:export-xdpi="300"
       transform="translate(-237.10008,-146.10604)"
       id="g4752">
      <path
         style="fill:#ff50a2;fill-opacity:1;stroke:none;stroke-width:2.702;stroke-linecap:round;stroke-linejoin:round;stroke-miterlimit:13.65400028;stroke-dasharray:none"
         id="rect2789"
         d="m 597.44636,276.05825 34.673,0 c 3.1186,0 5.6294,2.2457 5.6294,5.0351 l 0,35.862 c 0,2.7894 -2.5107,5.035 -5.6294,5.035 l -34.673,0 c -3.1188,0 -5.6294,-2.2456 -5.6294,-5.035 l 0,-35.862 c 0,-2.7894 2.5106,-5.0351 5.6294,-5.0351 z"
         inkscape:connector-curvature="0" />
      <path
         style="fill:#ffffff;fill-rule:evenodd;stroke-width:0.727"
         inkscape:connector-curvature="0"
         d="m 612.45636,290.84825 0,10.048 -2.9552,0 3.9684,6.7546 3.8839,-6.7546 -2.9551,0 0,-10.048 -1.942,0 z"
         id="path3073" />
    </g>
    <g
       inkscape:export-ydpi="300"
       inkscape:export-xdpi="300"
       transform="translate(-224.33053,-146.10604)"
       id="g4756">
      <path
         style="fill:#ff50a2;fill-opacity:1;stroke:none;stroke-width:2.7019999;stroke-linecap:round;stroke-linejoin:round;stroke-miterlimit:13.65400028;stroke-opacity:1"
         id="rect2785"
         d="m 648.07636,276.05825 34.673,0 c 3.1186,0 5.6294,2.2457 5.6294,5.0351 l 0,35.862 c 0,2.7894 -2.5107,5.035 -5.6294,5.035 l -34.673,0 c -3.1188,0 -5.6294,-2.2456 -5.6294,-5.035 l 0,-35.862 c 0,-2.7894 2.5106,-5.0351 5.6294,-5.0351 z"
         inkscape:connector-curvature="0" />
      <path
         style="fill:#ffffff;fill-rule:evenodd;stroke-width:0.727"
         inkscape:connector-curvature="0"
         d="m 667.25636,296.42825 0,2.9552 -9.9631,0 0,1.942 9.9631,0 0,2.9551 6.8391,-3.8839 -6.8391,-3.9684 z"
         id="path3075" />
    </g>
  </g>
  <g
     id="g4200"
     transform="translate(66.707556,3.4555597)">
    <g
       id="g4176"
       transform="translate(-55.947957,-87.779421)"
       inkscape:export-xdpi="299.70001"
       inkscape:export-ydpi="299.70001">
      <path
         inkscape:connector-curvature="0"
         d="m 546.81636,276.05825 34.673,0 c 3.1188,0 5.6294,2.2457 5.6294,5.0351 l 0,35.862 c 0,2.7894 -2.5106,5.035 -5.6294,5.035 l -34.673,0 c -3.1188,0 -5.6294,-2.2456 -5.6294,-5.035 l 0,-35.862 c 0,-2.7894 2.5106,-5.0351 5.6294,-5.0351 z"
         id="path4178"
         style="fill:#2f2930;stroke:none;stroke-width:2.7019999;stroke-linecap:round;stroke-linejoin:round;stroke-miterlimit:13.65400028" />
      <path
         id="path4180"
         d="m 562.30636,296.42825 -6.7546,3.9684 6.7546,3.8839 0,-2.9551 9.9631,0 0,-1.942 -9.9631,0 0,-2.9552 z"
         inkscape:connector-curvature="0"
         style="fill:#ffffff;fill-rule:evenodd;stroke-width:0.727" />
    </g>
    <g
       id="g4182"
       transform="translate(-296.38671,-35.569467)"
       inkscape:export-xdpi="300"
       inkscape:export-ydpi="300">
      <path
         inkscape:connector-curvature="0"
         d="m 597.05636,223.84825 34.673,0 c 3.1186,0 5.6294,2.2456 5.6294,5.0351 l 0,35.862 c 0,2.7894 -2.5107,5.0351 -5.6294,5.0351 l -34.673,0 c -3.1186,0 -5.6294,-2.2457 -5.6294,-5.0351 l 0,-35.862 c 0,-2.7895 2.5107,-5.0351 5.6294,-5.0351 z"
         id="path4184"
         style="fill:#2f2930;stroke:none;stroke-width:2.7019999;stroke-linecap:round;stroke-linejoin:round;stroke-miterlimit:13.65400028" />
      <path
         id="path4186"
         d="m 613.04636,238.16825 -3.9684,6.8391 2.9552,0 0,9.9631 1.9419,0 0,-9.9631 2.9552,0 -3.8839,-6.8391 z"
         inkscape:connector-curvature="0"
         style="fill:#ffffff;fill-rule:evenodd;stroke-width:0.727" />
    </g>
    <g
       id="g4188"
       transform="translate(-233.37713,-87.779421)"
       inkscape:export-xdpi="300"
       inkscape:export-ydpi="300">
      <path
         inkscape:connector-curvature="0"
         d="m 597.44636,276.05825 34.673,0 c 3.1186,0 5.6294,2.2457 5.6294,5.0351 l 0,35.862 c 0,2.7894 -2.5107,5.035 -5.6294,5.035 l -34.673,0 c -3.1188,0 -5.6294,-2.2456 -5.6294,-5.035 l 0,-35.862 c 0,-2.7894 2.5106,-5.0351 5.6294,-5.0351 z"
         id="path4190"
         style="opacity:1;fill:#2f2930;fill-opacity:1;stroke:none;stroke-width:2.7019999;stroke-linecap:round;stroke-linejoin:round;stroke-miterlimit:13.65400028;stroke-dasharray:none" />
      <path
         id="path4192"
         d="m 612.45636,290.84825 0,10.048 -2.9552,0 3.9684,6.7546 3.8839,-6.7546 -2.9551,0 0,-10.048 -1.942,0 z"
         inkscape:connector-curvature="0"
         style="fill:#ffffff;fill-rule:evenodd;stroke-width:0.727" />
    </g>
    <g
       id="g4194"
       transform="translate(-220.60755,-87.779421)"
       inkscape:export-xdpi="300"
       inkscape:export-ydpi="300">
      <path
         inkscape:connector-curvature="0"
         d="m 648.07636,276.05825 34.673,0 c 3.1186,0 5.6294,2.2457 5.6294,5.0351 l 0,35.862 c 0,2.7894 -2.5107,5.035 -5.6294,5.035 l -34.673,0 c -3.1188,0 -5.6294,-2.2456 -5.6294,-5.035 l 0,-35.862 c 0,-2.7894 2.5106,-5.0351 5.6294,-5.0351 z"
         id="path4196"
         style="fill:#2f2930;stroke:none;stroke-width:2.7019999;stroke-linecap:round;stroke-linejoin:round;stroke-miterlimit:13.65400028" />
      <path
         id="path4198"
         d="m 667.25636,296.42825 0,2.9552 -9.9631,0 0,1.942 9.9631,0 0,2.9551 6.8391,-3.8839 -6.8391,-3.9684 z"
         inkscape:connector-curvature="0"
         style="fill:#ffffff;fill-rule:evenodd;stroke-width:0.727" />
    </g>
  </g>
  <g
     id="g4650">
    <path
       inkscape:connector-curvature="0"
       d="m 266.07939,127.29259 34.67299,0 c 3.1187,0 5.6294,2.2456 5.6294,5.0351 l 0,35.862 c 0,2.7894 -2.5107,5.0351 -5.6294,5.0351 l -34.67299,0 c -3.1187,0 -5.6294,-2.2456 -5.6294,-5.0351 l 0,-35.862 c 0,-2.7894 2.5107,-5.0351 5.6294,-5.0351 z"
       id="rect2688"
       style="fill:#2f2930;fill-opacity:1;stroke:none;stroke-width:2.7019999;stroke-linecap:round;stroke-linejoin:round;stroke-miterlimit:13.65400028" />
    <path
       sodipodi:type="star"
       style="opacity:1;fill:#ff6600;fill-opacity:1"
       id="path4506"
       sodipodi:sides="7"
       sodipodi:cx="559.56006"
       sodipodi:cy="-774.08252"
       sodipodi:r1="551.48407"
       sodipodi:r2="275.74203"
       sodipodi:arg1="-1.2270331"
       sodipodi:arg2="-0.77823416"
       inkscape:flatsided="false"
       inkscape:rounded="0"
       inkscape:randomized="0"
       d="m 745.42813,-1293.3009 10.50281,325.64114 325.45726,15.16737 -248.04812,211.24537 191.06092,263.90943 -319.81372,-62.22249 -87.20814,313.9223 -150.75311,-288.83554 -299.80773,127.54528 131.82769,-297.94954 -286.645972,-154.87594 315.139552,-82.70146 -57.63395,-320.67242 261.1449,194.8225 z"
       inkscape:transform-center-x="0.48124477"
       inkscape:transform-center-y="0.54748201"
       transform="matrix(0.03740457,0,0,0.037465,262.96703,178.71221)" />
    <path
       id="text2459"
       d="m 279.42213,144.81004 0,10.897 2.2902,0 c 1.9335,0 3.3492,-0.43802 4.24721,-1.314 0.89789,-0.87604 1.3469,-2.2589 1.3469,-4.1486 0,-1.8772 -0.44898,-3.2523 -1.3469,-4.1252 -0.89792,-0.87289 -2.31361,-1.3093 -4.24721,-1.3094 l -2.2902,0 z m -1.8959,-1.558 3.8951,0 c 2.71571,0 4.7086,0.56476 5.9788,1.6942 1.2702,1.1295 1.9053,2.8956 1.9054,5.2984 -3e-5,2.4153 -0.63826,4.1892 -1.9147,5.3218 -1.2765,1.1326 -3.2663,1.6989 -5.9695,1.6989 l -3.8951,0 0,-14.013 z"
       inkscape:connector-curvature="0"
       style="fill:#2f2930;fill-opacity:1" />
  </g>
  <g
     id="g4631">
    <path
       style="fill:#ff50a2;fill-opacity:1;stroke:none;stroke-width:2.7019999;stroke-linecap:round;stroke-linejoin:round;stroke-miterlimit:13.65400028"
       id="path4500"
       d="m 266.07939,67.29259 34.67299,0 c 3.1187,0 5.6294,2.2456 5.6294,5.0351 l 0,35.862 c 0,2.7894 -2.5107,5.0351 -5.6294,5.0351 l -34.67299,0 c -3.1187,0 -5.6294,-2.2456 -5.6294,-5.0351 l 0,-35.862 c 0,-2.7894 2.5107,-5.0351 5.6294,-5.0351 z"
       inkscape:connector-curvature="0" />
    <path
       transform="matrix(0.03740457,0,0,0.037465,262.96703,118.71221)"
       inkscape:transform-center-y="0.54748201"
       inkscape:transform-center-x="0.48124477"
       d="m 745.42813,-1293.3009 10.50281,325.64114 325.45726,15.16737 -248.04812,211.24537 191.06092,263.90943 -319.81372,-62.22249 -87.20814,313.9223 -150.75311,-288.83554 -299.80773,127.54528 131.82769,-297.94954 -286.645972,-154.87594 315.139552,-82.70146 -57.63395,-320.67242 261.1449,194.8225 z"
       inkscape:randomized="0"
       inkscape:rounded="0"
       inkscape:flatsided="false"
       sodipodi:arg2="-0.77823416"
       sodipodi:arg1="-1.2270331"
       sodipodi:r2="275.74203"
       sodipodi:r1="551.48407"
       sodipodi:cy="-774.08252"
       sodipodi:cx="559.56006"
       sodipodi:sides="7"
       id="path4138"
       style="opacity:1;fill:#2f2930;fill-opacity:1"
       sodipodi:type="star" />
    <path
       style="fill:#ffffff"
       inkscape:connector-curvature="0"
       d="m 279.42213,84.81004 0,10.897 2.2902,0 c 1.9335,0 3.3492,-0.43802 4.24721,-1.314 0.89789,-0.87604 1.3469,-2.2589 1.3469,-4.1486 0,-1.8772 -0.44898,-3.2523 -1.3469,-4.1252 -0.89792,-0.87289 -2.31361,-1.3093 -4.24721,-1.3094 l -2.2902,0 z m -1.8959,-1.558 3.8951,0 c 2.71571,0 4.7086,0.56476 5.9788,1.6942 1.2702,1.1295 1.9053,2.8956 1.9054,5.2984 -3e-5,2.4153 -0.63826,4.1892 -1.9147,5.3218 -1.2765,1.1326 -3.2663,1.6989 -5.9695,1.6989 l -3.8951,0 0,-14.013 z"
       id="path4542" />
  </g>
</svg>
