<?xml version="1.0" encoding="UTF-8" standalone="no"?>
<!-- Created with Inkscape (http://www.inkscape.org/) -->

<svg
   xmlns:dc="http://purl.org/dc/elements/1.1/"
   xmlns:cc="http://creativecommons.org/ns#"
   xmlns:rdf="http://www.w3.org/1999/02/22-rdf-syntax-ns#"
   xmlns:svg="http://www.w3.org/2000/svg"
   xmlns="http://www.w3.org/2000/svg"
   xmlns:sodipodi="http://sodipodi.sourceforge.net/DTD/sodipodi-0.dtd"
   xmlns:inkscape="http://www.inkscape.org/namespaces/inkscape"
   width="210mm"
   height="297mm"
   viewBox="0 0 744.09448819 1052.3622047"
   id="svg2"
   version="1.1"
   inkscape:version="0.91 r"
   sodipodi:docname="wall.svg">
  <defs
     id="defs4" />
  <sodipodi:namedview
     id="base"
     pagecolor="#ffffff"
     bordercolor="#666666"
     borderopacity="1.0"
     inkscape:pageopacity="0.0"
     inkscape:pageshadow="2"
     inkscape:zoom="0.24748737"
     inkscape:cx="-83.571429"
     inkscape:cy="4564.2082"
     inkscape:document-units="px"
     inkscape:current-layer="layer1"
     showgrid="false"
     inkscape:window-width="2560"
     inkscape:window-height="1388"
     inkscape:window-x="0"
     inkscape:window-y="25"
     inkscape:window-maximized="1" />
  <metadata
     id="metadata7">
    <rdf:RDF>
      <cc:Work
         rdf:about="">
        <dc:format>image/svg+xml</dc:format>
        <dc:type
           rdf:resource="http://purl.org/dc/dcmitype/StillImage" />
        <dc:title></dc:title>
      </cc:Work>
    </rdf:RDF>
  </metadata>
  <g
     inkscape:label="Layer 1"
     inkscape:groupmode="layer"
     id="layer1">
    <rect
       style="fill:#00e6ff;fill-opacity:1;fill-rule:evenodd;stroke:#000000;stroke-width:0;stroke-linecap:butt;stroke-linejoin:miter;stroke-miterlimit:4;stroke-dasharray:none;stroke-opacity:1"
       id="rect3336"
       width="1584.8845"
       height="2250.4846"
       x="1.1577144"
       y="-4498.1226" />
    <rect
       style="fill:#00e6ff;fill-opacity:1;fill-rule:evenodd;stroke:#000000;stroke-width:0;stroke-linecap:butt;stroke-linejoin:miter;stroke-miterlimit:4;stroke-dasharray:none;stroke-opacity:1"
       id="rect3336-4"
       width="1584.8845"
       height="2250.4846"
       x="-2508.8"
       y="-4498.1226" />
    <rect
       style="fill:#00e6ff;fill-opacity:1;fill-rule:evenodd;stroke:#000000;stroke-width:0;stroke-linecap:butt;stroke-linejoin:miter;stroke-miterlimit:4;stroke-dasharray:none;stroke-opacity:1"
       id="rect3336-4-5"
       width="921.59998"
       height="1638.4"
       x="-921.59998"
       y="-4500.438" />
    <g
       id="g4543"
       transform="translate(-214.2863,4727.6278)">
      <path
         id="path4168"
         d="m -246.51367,-9225.75 a 2048,2250.4851 0 0 0 -2048.00003,2250.4844 l 348,0 A 1698,1900.485 0 0 1 -248.51367,-8875.75 1698,1900.485 0 0 1 1449.4863,-6975.2656 l 352,0 A 2048,2250.4851 0 0 0 -246.51367,-9225.75 Z"
         style="fill:#ba00cb;fill-opacity:1;stroke-width:0;stroke-miterlimit:4;stroke-dasharray:none"
         inkscape:connector-curvature="0" />
      <path
         id="path4168-0"
         d="m -246.51367,-9175.75 a 1998,2200.4851 0 0 0 -1998.00003,2200.4844 l 298,0 A 1698,1900.485 0 0 1 -248.51367,-8875.75 1698,1900.485 0 0 1 1449.4863,-6975.2656 l 302,0 A 1998,2200.4851 0 0 0 -246.51367,-9175.75 Z"
         style="fill:#0000ff;fill-opacity:1;stroke-width:0;stroke-miterlimit:4;stroke-dasharray:none"
         inkscape:connector-curvature="0" />
      <path
         id="path4168-0-7"
         d="m -248.51367,-9125.75 a 1948,2150.4851 0 0 0 -1948.00003,2150.4844 l 250,0 A 1698,1900.485 0 0 1 -248.51367,-8875.75 1698,1900.485 0 0 1 1449.4863,-6975.2656 l 250,0 A 1948,2150.4851 0 0 0 -248.51367,-9125.75 Z"
         style="fill:#00ffff;fill-opacity:1;stroke-width:0;stroke-miterlimit:4;stroke-dasharray:none"
         inkscape:connector-curvature="0" />
      <path
         id="path4168-0-7-8"
         d="m -248.51367,-9075.75 a 1898,2100.4851 0 0 0 -1898.00003,2100.4844 l 200,0 A 1698,1900.485 0 0 1 -248.51367,-8875.75 1698,1900.485 0 0 1 1449.4863,-6975.2656 l 200,0 A 1898,2100.4851 0 0 0 -248.51367,-9075.75 Z"
         style="fill:#00ff00;fill-opacity:1;stroke-width:0;stroke-miterlimit:4;stroke-dasharray:none"
         inkscape:connector-curvature="0" />
      <path
         id="path4168-0-7-8-6"
         d="m -248.51367,-9025.75 a 1848,2050.4851 0 0 0 -1848.00003,2050.4844 l 150,0 A 1698,1900.485 0 0 1 -248.51367,-8875.75 1698,1900.485 0 0 1 1449.4863,-6975.2656 l 150,0 A 1848,2050.4851 0 0 0 -248.51367,-9025.75 Z"
         style="fill:#ffff00;fill-opacity:1;stroke-width:0;stroke-miterlimit:4;stroke-dasharray:none"
         inkscape:connector-curvature="0" />
      <path
         id="path4168-0-7-8-6-7"
         d="m -248.51367,-8975.75 a 1798,2000.485 0 0 0 -1798.00003,2000.4844 l 100,0 A 1698,1900.485 0 0 1 -248.51367,-8875.75 1698,1900.485 0 0 1 1449.4863,-6975.2656 l 100,0 A 1798,2000.485 0 0 0 -248.51367,-8975.75 Z"
         style="fill:#ff7f00;fill-opacity:1;stroke-width:0;stroke-miterlimit:4;stroke-dasharray:none"
         inkscape:connector-curvature="0" />
      <path
         id="path4168-0-7-8-6-7-7"
         d="m -248.51367,-8925.75 a 1748,1950.485 0 0 0 -1748.00003,1950.4844 l 50,0 A 1698,1900.485 0 0 1 -248.51367,-8875.75 1698,1900.485 0 0 1 1449.4863,-6975.2656 l 50,0 A 1748,1950.485 0 0 0 -248.51367,-8925.75 Z"
         style="fill:#ff0000;fill-opacity:1;stroke-width:0;stroke-miterlimit:4;stroke-dasharray:none"
         inkscape:connector-curvature="0" />
    </g>
  </g>
</svg>
